<svg width="24" height="21" viewBox="0 0 24 21" fill="none" xmlns="http://www.w3.org/2000/svg">
<path d="M13.8383 9.21447L19.3325 6.0424C19.7713 5.78909 20.3323 5.93942 20.5856 6.37817L20.6971 6.57131C21.4185 7.82072 21.4453 9.3536 20.7681 10.6275C19.9431 12.1794 18.0583 12.829 16.4523 12.1149L13.932 10.9942C13.1853 10.6622 13.1306 9.62311 13.8383 9.21447Z" stroke="#055B83" stroke-width="1.5"/>
<path d="M12.1377 12.1599V18.5041C12.1377 19.0107 11.727 19.4214 11.2204 19.4214H10.9973C9.55466 19.4214 8.21373 18.6782 7.44911 17.4548C6.51758 15.9643 6.89741 14.0073 8.31885 12.9735L10.5495 11.3512C11.2105 10.8705 12.1377 11.3426 12.1377 12.1599Z" stroke="#055B83" stroke-width="1.5"/>
<path d="M13.8383 11.1781L19.3325 14.3502C19.7713 14.6035 19.9216 15.1645 19.6683 15.6033L19.5568 15.7964C18.8354 17.0458 17.5213 17.8355 16.0795 17.886C14.323 17.9475 12.8181 16.64 12.6335 14.8921L12.3439 12.1491C12.2581 11.3364 13.1306 10.7695 13.8383 11.1781Z" stroke="#055B83" stroke-width="1.5"/>
<path d="M10.437 11.1781L4.94287 14.3502C4.50412 14.6035 3.94309 14.4532 3.68977 14.0144L3.57826 13.8213C2.85692 12.5719 2.83009 11.039 3.50727 9.7651C4.33227 8.21315 6.21706 7.56356 7.82305 8.27768L10.3433 9.39834C11.0901 9.73041 11.1448 10.7695 10.437 11.1781Z" stroke="#055B83" stroke-width="1.5"/>
<path d="M10.437 9.21447L4.94287 6.0424C4.50412 5.78909 4.35379 5.22806 4.6071 4.78931L4.71861 4.59617C5.43996 3.34676 6.75405 2.55709 8.19586 2.50661C9.95239 2.4451 11.4573 3.75258 11.6419 5.50047L11.9315 8.24344C12.0173 9.05621 11.1448 9.62311 10.437 9.21447Z" stroke="#055B83" stroke-width="1.5"/>
<path d="M12.1377 8.2324V1.88827C12.1377 1.38165 12.5484 0.970947 13.055 0.970947H13.278C14.7207 0.970947 16.0617 1.71415 16.8263 2.93755C17.7578 4.428 17.378 6.38506 15.9565 7.41883L13.7259 9.04114C13.0649 9.52184 12.1377 9.04969 12.1377 8.2324Z" stroke="#055B83" stroke-width="1.5"/>
</svg>
