<svg width="26" height="16" viewBox="0 0 26 16" fill="none" xmlns="http://www.w3.org/2000/svg">
<path d="M4.36328 4.72754L10.9087 4.72754" stroke="#055B83" stroke-width="1.5" stroke-linecap="round" stroke-linejoin="round"/>
<path d="M4.36328 11.2729L10.9087 11.2729" stroke="#055B83" stroke-width="1.5" stroke-linecap="round" stroke-linejoin="round"/>
<path d="M1.09082 8L9.81809 8" stroke="#055B83" stroke-width="1.5" stroke-linecap="round" stroke-linejoin="round"/>
<circle cx="17.4547" cy="8.00013" r="6.88636" stroke="white" stroke-width="1.5"/>
<circle cx="17.4546" cy="8.00004" r="5.79545" stroke="#055B83" stroke-width="1.5"/>
<path d="M19.0906 6.3637H16.9088C16.7642 6.3637 16.6254 6.42117 16.5231 6.52346C16.4208 6.62576 16.3634 6.76449 16.3634 6.90916C16.3634 7.05382 16.4208 7.19256 16.5231 7.29485C16.6254 7.39714 16.7642 7.45461 16.9088 7.45461H17.9997C18.4337 7.45461 18.8499 7.62701 19.1568 7.93389C19.4637 8.24077 19.6361 8.65699 19.6361 9.09098C19.6361 9.52497 19.4637 9.94118 19.1568 10.2481C18.8499 10.5549 18.4337 10.7273 17.9997 10.7273V11.2728C17.9997 11.4175 17.9423 11.5562 17.84 11.6585C17.7377 11.7608 17.5989 11.8182 17.4543 11.8182C17.3096 11.8182 17.1709 11.7608 17.0686 11.6585C16.9663 11.5562 16.9088 11.4175 16.9088 11.2728V10.7273H15.8179C15.6733 10.7273 15.5345 10.6699 15.4322 10.5676C15.3299 10.4653 15.2725 10.3265 15.2725 10.1819C15.2725 10.0372 15.3299 9.89848 15.4322 9.79619C15.5345 9.6939 15.6733 9.63643 15.8179 9.63643H17.9997C18.1444 9.63643 18.2831 9.57896 18.3854 9.47667C18.4877 9.37438 18.5452 9.23564 18.5452 9.09098C18.5452 8.94631 18.4877 8.80757 18.3854 8.70528C18.2831 8.60299 18.1444 8.54552 17.9997 8.54552H16.9088C16.4748 8.54552 16.0586 8.37312 15.7517 8.06624C15.4449 7.75936 15.2725 7.34315 15.2725 6.90916C15.2725 6.47517 15.4449 6.05895 15.7517 5.75207C16.0586 5.4452 16.4748 5.27279 16.9088 5.27279V4.72734C16.9088 4.58268 16.9663 4.44394 17.0686 4.34164C17.1709 4.23935 17.3096 4.18188 17.4543 4.18188C17.5989 4.18188 17.7377 4.23935 17.84 4.34164C17.9423 4.44394 17.9997 4.58268 17.9997 4.72734V5.27279H19.0906C19.2353 5.27279 19.374 5.33026 19.4763 5.43255C19.5786 5.53485 19.6361 5.67358 19.6361 5.81825C19.6361 5.96291 19.5786 6.10165 19.4763 6.20394C19.374 6.30624 19.2353 6.3637 19.0906 6.3637Z" fill="#055B83"/>
</svg>
