<svg width="25" height="23" viewBox="0 0 25 23" fill="none" xmlns="http://www.w3.org/2000/svg">
<path d="M1.09082 9.15523H23.4223" stroke="#055B83" stroke-width="1.5" stroke-linecap="round" stroke-linejoin="round"/>
<path d="M9.81836 18.46L11.6793 20.3209" stroke="#055B83" stroke-width="1.5" stroke-linecap="round" stroke-linejoin="round"/>
<path d="M9.81836 22.1818L11.6793 20.3208" stroke="#055B83" stroke-width="1.5" stroke-linecap="round" stroke-linejoin="round"/>
<path d="M12.2565 4.81311L10.3955 2.95215" stroke="#055B83" stroke-width="1.5" stroke-linecap="round" stroke-linejoin="round"/>
<path d="M12.2565 1.09106L10.3955 2.95203" stroke="#055B83" stroke-width="1.5" stroke-linecap="round" stroke-linejoin="round"/>
<path d="M10.3635 20.3211H3.5721C2.2074 20.3211 1.09082 19.2045 1.09082 17.8398V5.43343C1.09082 4.06872 2.2074 2.95215 3.5721 2.95215H6.05338" stroke="#055B83" stroke-width="1.5" stroke-linecap="round" stroke-linejoin="round"/>
<path d="M10.3955 2.95215H20.941C22.3057 2.95215 23.4222 4.06872 23.4222 5.43343V17.8398C23.4222 19.2045 22.3057 20.3211 20.941 20.3211H18.4597" stroke="#055B83" stroke-width="1.5" stroke-linecap="round" stroke-linejoin="round"/>
<path d="M17.3186 13.4027H14.5914C14.4105 13.4027 14.2371 13.4684 14.1092 13.5853C13.9814 13.7022 13.9095 13.8607 13.9095 14.0261C13.9095 14.1914 13.9814 14.35 14.1092 14.4669C14.2371 14.5838 14.4105 14.6494 14.5914 14.6494H15.955C16.4975 14.6494 17.0177 14.8465 17.4013 15.1972C17.7849 15.5479 18.0004 16.0236 18.0004 16.5196C18.0004 17.0156 17.7849 17.4912 17.4013 17.842C17.0177 18.1927 16.4975 18.3897 15.955 18.3897V19.0131C15.955 19.1784 15.8832 19.337 15.7553 19.4539C15.6274 19.5708 15.454 19.6365 15.2732 19.6365C15.0923 19.6365 14.9189 19.5708 14.7911 19.4539C14.6632 19.337 14.5914 19.1784 14.5914 19.0131V18.3897H13.2277C13.0469 18.3897 12.8735 18.324 12.7456 18.2071C12.6177 18.0902 12.5459 17.9317 12.5459 17.7663C12.5459 17.601 12.6177 17.4424 12.7456 17.3255C12.8735 17.2086 13.0469 17.1429 13.2277 17.1429H15.955C16.1358 17.1429 16.3092 17.0773 16.4371 16.9604C16.565 16.8435 16.6368 16.6849 16.6368 16.5196C16.6368 16.3542 16.565 16.1957 16.4371 16.0788C16.3092 15.9619 16.1358 15.8962 15.955 15.8962H14.5914C14.0489 15.8962 13.5286 15.6992 13.145 15.3484C12.7614 14.9977 12.5459 14.5221 12.5459 14.0261C12.5459 13.5301 12.7614 13.0544 13.145 12.7037C13.5286 12.353 14.0489 12.1559 14.5914 12.1559V11.5326C14.5914 11.3672 14.6632 11.2087 14.7911 11.0918C14.9189 10.9749 15.0923 10.9092 15.2732 10.9092C15.454 10.9092 15.6274 10.9749 15.7553 11.0918C15.8832 11.2087 15.955 11.3672 15.955 11.5326V12.1559H17.3186C17.4995 12.1559 17.6729 12.2216 17.8007 12.3385C17.9286 12.4554 18.0004 12.614 18.0004 12.7793C18.0004 12.9446 17.9286 13.1032 17.8007 13.2201C17.6729 13.337 17.4995 13.4027 17.3186 13.4027Z" fill="#055B83"/>
</svg>
