<svg width="28" height="28" viewBox="0 0 28 28" fill="none" xmlns="http://www.w3.org/2000/svg">
<path d="M22.3196 6.87784L14.68 3.65484C14.245 3.47136 13.7544 3.47136 13.3195 3.65484L5.67982 6.87784C4.9567 7.1829 4.52512 7.93209 4.62399 8.71068L5.4744 15.4077C5.6917 17.1189 6.55593 18.6821 7.88962 19.7761L12.8898 23.8778C13.5351 24.4072 14.4644 24.4072 15.1096 23.8778L20.1098 19.7761C21.4435 18.6821 22.3078 17.1189 22.5251 15.4077L23.3755 8.71068C23.4743 7.93209 23.0428 7.1829 22.3196 6.87784Z" stroke="#055B83" stroke-width="1.5" stroke-linecap="round"/>
<path d="M10.649 14.0001L12.9717 16.3228C13.1858 16.5369 13.5395 16.5131 13.723 16.2723L18.3633 10.1819" stroke="#055B83" stroke-width="1.5" stroke-linecap="round"/>
</svg>
