<svg width="16" height="12" viewBox="0 0 16 12" fill="none" xmlns="http://www.w3.org/2000/svg">
<path d="M15.3572 5.3572L10.7857 0.785746C10.4702 0.470228 9.95852 0.470228 9.64301 0.785746C9.32749 1.10126 9.32749 1.61297 9.64301 1.92849L12.835 5.1205L1.07147 5.12074C0.625083 5.12074 0.263404 5.48242 0.263404 5.92881C0.263404 6.15176 0.353762 6.35409 0.500104 6.50043C0.646445 6.64677 0.848279 6.73713 1.07172 6.73713L12.8348 6.73688L9.64276 9.92889C9.32724 10.2444 9.32725 10.7561 9.64276 11.0716C9.95828 11.3872 10.47 11.3872 10.7855 11.0716L15.3572 6.49994C15.673 6.18467 15.673 5.67296 15.3572 5.3572Z" fill="#055B83"/>
</svg>
