<svg width="16" height="12" viewBox="0 0 16 12" fill="none" xmlns="http://www.w3.org/2000/svg">
<path d="M15.3572 5.35744L10.7857 0.78599C10.4702 0.470472 9.95852 0.470472 9.64301 0.78599C9.32749 1.10151 9.32749 1.61321 9.64301 1.92873L12.835 5.12074L1.07147 5.12098C0.625083 5.12099 0.263404 5.48266 0.263404 5.92905C0.263404 6.152 0.353762 6.35433 0.500104 6.50067C0.646445 6.64701 0.848279 6.73737 1.07172 6.73737L12.8348 6.73713L9.64276 9.92914C9.32724 10.2447 9.32725 10.7564 9.64276 11.0719C9.95828 11.3874 10.47 11.3874 10.7855 11.0719L15.3572 6.50018C15.673 6.18491 15.673 5.67321 15.3572 5.35744Z" fill="white"/>
</svg>
