<svg width="17" height="16" viewBox="0 0 17 16" fill="none" xmlns="http://www.w3.org/2000/svg">
<rect x="2.33398" y="3.3335" width="12.6667" height="9.14815" rx="2" stroke="#88ADD2"/>
<path d="M14.9993 6.66699H2.66602" stroke="#88ADD2"/>
<circle cx="5.33333" cy="10.3333" r="4.33333" fill="white" stroke="white" stroke-width="1.5"/>
<path d="M2.33398 10.2222C2.33398 9.27936 2.33398 8.80795 2.62688 8.51506C2.91977 8.22217 3.39118 8.22217 4.33398 8.22217H6.25991C7.20272 8.22217 7.67412 8.22217 7.96702 8.51506C8.25991 8.80795 8.25991 9.27936 8.25991 10.2222V10.6666C8.25991 11.6094 8.25991 12.0808 7.96702 12.3737C7.67412 12.6666 7.20272 12.6666 6.25991 12.6666H4.33399C3.39118 12.6666 2.91977 12.6666 2.62688 12.3737C2.33398 12.0808 2.33398 11.6094 2.33398 10.6666V10.2222Z" stroke="#88ADD2"/>
<path d="M6.77742 7.85185V7.48148C6.77742 6.66328 6.11413 6 5.29593 6V6C4.47774 6 3.81445 6.66328 3.81445 7.48148V7.85185" stroke="#88ADD2" stroke-linecap="round"/>
<circle cx="5.29738" cy="10.4444" r="0.740741" fill="#88ADD2"/>
</svg>
