<svg width="20" height="19" viewBox="0 0 20 19" fill="none" xmlns="http://www.w3.org/2000/svg">
<path d="M1 1H2.43845C3.35618 1 4.15615 1.62459 4.37873 2.51493L4.5 3M4.5 3L6.5 11H15.0296C15.9044 11 16.6777 10.4315 16.9386 9.59655L19 3H4.5Z" stroke="#055B83" stroke-width="1.5" stroke-linecap="round" stroke-linejoin="round"/>
<path d="M6.5 11L7.36957 14H15.5" stroke="#055B83" stroke-width="1.5" stroke-linecap="round" stroke-linejoin="round"/>
<path d="M17.75 16C17.75 16.9665 16.9665 17.75 16 17.75C15.0335 17.75 14.25 16.9665 14.25 16C14.25 15.0335 15.0335 14.25 16 14.25C16.9665 14.25 17.75 15.0335 17.75 16Z" stroke="#055B83" stroke-width="1.5"/>
<path d="M9.25 16C9.25 16.9665 8.4665 17.75 7.5 17.75C6.5335 17.75 5.75 16.9665 5.75 16C5.75 15.0335 6.5335 14.25 7.5 14.25C8.4665 14.25 9.25 15.0335 9.25 16Z" stroke="#055B83" stroke-width="1.5"/>
<path d="M7 3C7 2.44772 7.44772 2 8 2H16L13.75 4H8C7.44772 4 7 3.55228 7 3V3Z" fill="#F2F7F9"/>
<path d="M9 3L10.5 4.5L14 1" stroke="#055B83" stroke-width="1.5" stroke-linecap="round" stroke-linejoin="round"/>
</svg>
