<svg width="14" height="13" viewBox="0 0 14 13" fill="none" xmlns="http://www.w3.org/2000/svg">
<path d="M1.33398 0.666504H1.95962C2.76734 0.666504 3.47142 1.21623 3.66732 1.99984V1.99984M3.66732 1.99984L5.00065 7.33317H10.1969C11.0717 7.33317 11.845 6.76467 12.1059 5.92972L13.334 1.99984H3.66732Z" stroke="#88ADD2" stroke-linecap="round" stroke-linejoin="round"/>
<path d="M5 7.33301L5.57971 9.33301H11" stroke="#88ADD2" stroke-linecap="round" stroke-linejoin="round"/>
<path d="M12.5013 10.6667C12.5013 11.311 11.979 11.8333 11.3346 11.8333C10.6903 11.8333 10.168 11.311 10.168 10.6667C10.168 10.0223 10.6903 9.5 11.3346 9.5C11.979 9.5 12.5013 10.0223 12.5013 10.6667Z" stroke="#88ADD2"/>
<path d="M6.83333 10.6667C6.83333 11.311 6.311 11.8333 5.66667 11.8333C5.02233 11.8333 4.5 11.311 4.5 10.6667C4.5 10.0223 5.02233 9.5 5.66667 9.5C6.311 9.5 6.83333 10.0223 6.83333 10.6667Z" stroke="#88ADD2"/>
<path d="M5.33398 1.99967C5.33398 1.63148 5.63246 1.33301 6.00065 1.33301H11.334L9.83398 2.66634H6.00065C5.63246 2.66634 5.33398 2.36786 5.33398 1.99967Z" fill="#F2F7F9"/>
<path d="M6.66797 1.99984L7.66797 2.99984L10.0013 0.666504" stroke="#88ADD2" stroke-linecap="round" stroke-linejoin="round"/>
</svg>
