<svg width="25" height="24" viewBox="0 0 25 24" fill="none" xmlns="http://www.w3.org/2000/svg">
<rect x="3" y="5" width="19" height="13.7222" rx="2" stroke="#055B83" stroke-width="1.5"/>
<path d="M22 10H3.5" stroke="#055B83" stroke-width="1.5"/>
<circle cx="7.5" cy="15.5" r="6.5" fill="#F2F7F9" stroke="#F2F7F9" stroke-width="1.5"/>
<path d="M3 15.6668C3 14.4207 3 13.7976 3.26795 13.3335C3.44349 13.0295 3.69596 12.777 4 12.6014C4.4641 12.3335 5.08718 12.3335 6.33333 12.3335H8.55555C9.80171 12.3335 10.4248 12.3335 10.8889 12.6014C11.1929 12.777 11.4454 13.0295 11.6209 13.3335C11.8889 13.7976 11.8889 14.4207 11.8889 15.6668V15.6668C11.8889 16.913 11.8889 17.5361 11.6209 18.0002C11.4454 18.3042 11.1929 18.5567 10.8889 18.7322C10.4248 19.0002 9.80171 19.0002 8.55555 19.0002H6.33334C5.08718 19.0002 4.4641 19.0002 4 18.7322C3.69596 18.5567 3.44349 18.3042 3.26795 18.0002C3 17.5361 3 16.913 3 15.6668V15.6668Z" stroke="#055B83" stroke-width="1.5"/>
<path d="M9.66661 11.7778V11.2222C9.66661 9.99492 8.67169 9 7.44439 9V9C6.21709 9 5.22217 9.99492 5.22217 11.2222V11.7778" stroke="#055B83" stroke-width="1.2" stroke-linecap="round"/>
<circle cx="7.44436" cy="15.6668" r="1.11111" fill="#055B83"/>
</svg>
