<svg width="27" height="27" viewBox="0 0 27 27" fill="none" xmlns="http://www.w3.org/2000/svg">
<rect x="4.5" y="16.875" width="18" height="7.875" rx="1" stroke="#88ADD2" stroke-width="1.5" stroke-linejoin="round"/>
<path d="M18 20.25L19.125 20.25" stroke="#88ADD2" stroke-width="1.5" stroke-linecap="round"/>
<path d="M10.125 13.5H11.25" stroke="#88ADD2" stroke-width="1.5" stroke-linecap="round"/>
<path d="M10.125 13.5V12.375" stroke="#88ADD2" stroke-width="1.5" stroke-linecap="round" stroke-linejoin="round"/>
<path d="M10.125 7.87549H11.25" stroke="#88ADD2" stroke-width="1.5" stroke-linecap="round"/>
<path d="M10.125 7.875V9" stroke="#88ADD2" stroke-width="1.5" stroke-linecap="round" stroke-linejoin="round"/>
<path d="M16.875 13.5H15.75" stroke="#88ADD2" stroke-width="1.5" stroke-linecap="round"/>
<path d="M16.875 13.5V12.375" stroke="#88ADD2" stroke-width="1.5" stroke-linecap="round" stroke-linejoin="round"/>
<path d="M16.875 7.87549H15.75" stroke="#88ADD2" stroke-width="1.5" stroke-linecap="round"/>
<path d="M16.875 7.875V9" stroke="#88ADD2" stroke-width="1.5" stroke-linecap="round" stroke-linejoin="round"/>
<path d="M6.75 3.375L7.8828 4.1302C8.2187 4.35413 8.6563 4.35413 8.9922 4.1302L9.5703 3.7448C9.9062 3.52087 10.3438 3.52087 10.6797 3.7448L11.2578 4.1302C11.5937 4.35413 12.0313 4.35413 12.3672 4.1302L12.9453 3.7448C13.2812 3.52087 13.7188 3.52087 14.0547 3.7448L14.6328 4.1302C14.9687 4.35413 15.4063 4.35413 15.7422 4.1302L16.3203 3.7448C16.6562 3.52087 17.0938 3.52087 17.4297 3.7448L18.0078 4.1302C18.3437 4.35413 18.7813 4.35413 19.1172 4.1302L20.25 3.375V16.875H6.75V3.375Z" stroke="#88ADD2" stroke-width="1.5" stroke-linejoin="round"/>
</svg>
