<svg width="18" height="18" viewBox="0 0 18 18" fill="none" xmlns="http://www.w3.org/2000/svg">
<path d="M7.77061 4.104L4.89506 0.784751C4.56356 0.402251 3.95581 0.403951 3.57076 0.789851L1.20606 3.1588C0.502259 3.86345 0.300809 4.9098 0.707959 5.74875C3.14033 10.785 7.202 14.8523 12.2348 17.2918C13.0729 17.6989 14.1184 17.4975 14.8222 16.7928L17.209 14.4018C17.5958 14.015 17.5966 13.4039 17.2107 13.0724L13.8787 10.2121C13.5302 9.9129 12.9888 9.952 12.6394 10.3022L11.48 11.4633C11.4207 11.5255 11.3425 11.5665 11.2576 11.58C11.1727 11.5935 11.0857 11.5788 11.01 11.5381C9.11484 10.4468 7.5428 8.8727 6.45396 6.97615C6.41318 6.90029 6.39842 6.81314 6.41193 6.72808C6.42544 6.64302 6.46648 6.56474 6.52876 6.50525L7.68476 5.3484C8.03496 4.9965 8.07321 4.4525 7.77061 4.10315V4.104Z" stroke="#F8F8F8" stroke-linecap="round" stroke-linejoin="round"/>
</svg>
