<svg width="161" height="51" viewBox="0 0 161 51" fill="none" xmlns="http://www.w3.org/2000/svg">
<path d="M78.9932 4.63672H87.9047C91.8104 4.63672 93.8045 6.45798 93.8045 9.81687C93.88 10.6844 93.7047 11.5559 93.3029 12.3103C92.9012 13.0647 92.2931 13.6646 91.5629 14.0267C92.4752 14.3723 93.2569 15.0352 93.7866 15.9125C94.3163 16.7898 94.5643 17.8324 94.4922 18.8784C94.4922 22.7449 92.058 25.0886 87.6159 25.0886H78.9932V4.63672ZM87.1484 12.5338C89.0187 12.5338 89.8989 11.877 89.8989 10.3244C89.8989 8.77188 88.9774 8.18968 87.1484 8.18968H82.7338V12.5338H87.1484ZM87.3134 21.3864C89.4313 21.3864 90.4077 20.625 90.4077 18.7291C90.4077 16.8332 89.4313 16.042 87.2996 16.042H82.7338V21.3864H87.3134Z" fill="white"/>
<path d="M109.47 4.63672L116.264 25.0886H112.221L110.914 20.9535H103.625L102.36 25.1633H98.2344L104.946 4.71136L109.47 4.63672ZM104.643 17.4453H109.896L107.27 8.71217L104.643 17.4453Z" fill="white"/>
<path d="M121.159 4.63672H125.23L132.89 18.6993V4.63672H136.727V25.0886H132.697L124.996 11.041V25.0886H121.159V4.63672Z" fill="white"/>
<path d="M144.222 4.63672H148.1V13.0115L155.457 4.63672H160.312L152.789 12.922L161 25.0886H156.241L150.121 15.7285L148.1 17.8782V25.0886H144.222V4.63672Z" fill="white"/>
<path d="M11.277 4.63672L18.0707 25.0886H13.945L12.721 20.9535H5.40471L4.12573 25.0886H0L6.69744 4.63672H11.277ZM6.42239 17.4303H11.6758L9.04911 8.74203L6.42239 17.4303Z" fill="white"/>
<path d="M23.5039 4.63672H32.388C36.2937 4.63672 38.3015 6.48784 38.3015 9.81687C38.3749 10.6841 38.1987 11.5546 37.7972 12.3086C37.3958 13.0626 36.7888 13.6628 36.0599 14.0267C36.9712 14.3677 37.7522 15.028 38.28 15.9036C38.8078 16.7792 39.0524 17.8204 38.9754 18.8635C38.9754 22.7598 36.555 25.0886 32.0992 25.0886H23.5039V4.63672ZM31.6316 12.5488C33.4882 12.5488 34.3821 11.8919 34.3821 10.3244C34.3821 8.75695 33.4607 8.18968 31.6316 8.18968H27.2308V12.5488H31.6316ZM31.7829 21.3864C33.9008 21.3864 34.9047 20.6101 34.9047 18.744C34.9047 16.878 33.9008 16.042 31.7554 16.042H27.2308V21.3864H31.7829Z" fill="white"/>
<path d="M53.9788 4.63672L60.7725 25.0886H56.7155L55.4228 20.9535H48.134L46.8962 25.1633H42.7705L49.5092 4.63672H53.9788ZM49.1379 17.4303H54.3776L51.7646 8.74203L49.1379 17.4303Z" fill="white"/>
<path d="M66.1628 0.576172H62.5184V8.69722H66.1628V0.576172Z" fill="#ED1F24"/>
<path d="M160.986 34.8213H0.0957031V35.9409H160.986V34.8213Z" fill="white"/>
<path d="M5.50041 43.4508C5.38001 43.4952 5.2495 43.4952 5.1291 43.4508C5.04118 43.4004 4.96929 43.3223 4.92281 43.2269L3.91888 41.7341C3.8724 41.6386 3.80052 41.5606 3.7126 41.5101C3.59117 41.4732 3.46271 41.4732 3.34128 41.5101L0.0957031 42.4805V49.049L3.35503 48.0786C3.47646 48.0417 3.60492 48.0417 3.72635 48.0786C3.80886 48.0786 3.86387 48.213 3.93263 48.3026L4.92281 49.7954C4.98184 49.8851 5.05662 49.9612 5.14285 50.0193C5.25967 50.0558 5.3836 50.0558 5.50041 50.0193L8.74599 49.0639V42.5103L5.50041 43.4508Z" fill="#ED1F24"/>
<path d="M64.0308 47.7198H66.2587L66.6438 49.0633H68.019L65.8874 42.5098L64.1271 43.4353L62.2705 49.0633H63.6458L64.0308 47.7198ZM65.1448 43.9877L65.8874 46.5852H64.3609L65.1448 43.9877Z" fill="white"/>
<path d="M61.185 45.5253C61.4242 45.4204 61.6257 45.2343 61.7596 44.9949C61.8934 44.7554 61.9523 44.4754 61.9276 44.1967C61.9276 43.51 61.5425 42.5098 60.0573 42.5098H58.3932L57.1143 43.1815V49.0633H59.686C60.9237 49.0633 61.2537 48.8394 61.5976 48.4811C61.9294 48.1204 62.1171 47.6324 62.1201 47.1226C62.1583 46.7801 62.086 46.4338 61.9156 46.1425C61.7451 45.8513 61.4869 45.6332 61.185 45.5253ZM58.3382 43.6443H59.7135C60.2911 43.6443 60.6486 43.8085 60.6486 44.346C60.6486 44.8834 60.2498 45.0775 59.7547 45.0775H58.3382V43.6443ZM59.8785 47.9288H58.3382V46.1822H59.9473C60.4011 46.1822 60.8549 46.4061 60.8549 46.9734C60.8549 47.5406 60.5111 47.9288 59.8785 47.9288Z" fill="white"/>
<path d="M73.479 49.0633V42.5098L72.2963 43.1368V47.0779H72.2826L69.8759 42.5098L68.5557 43.2114V49.0633H69.7246V44.3907H69.7521L72.2138 49.0633H73.479Z" fill="white"/>
<path d="M75.9137 46.8539L76.505 46.1971L78.3753 49.0633H79.9981L77.3852 45.1969L79.8469 42.5098L77.894 42.883L75.9137 45.1819V42.5098L74.6484 43.1815V49.0633H75.9137V46.8539Z" fill="white"/>
<path d="M22.8148 42.5098L21.137 43.4353L19.2529 49.0633H20.5044L20.9307 47.7198H23.1586L23.5437 49.0633H24.9189L22.7873 42.5098H22.8148ZM21.2883 46.5852L22.0722 43.9877L22.8148 46.5852H21.2883Z" fill="white"/>
<path d="M47.6375 42.5098L45.8772 43.4353L44.0068 49.0633H45.3821L45.8084 47.7198H48.0363L48.4214 49.0633H49.7966L47.665 42.5098H47.6375ZM46.1247 46.5852L46.8948 43.9877L47.6512 46.5852H46.1247Z" fill="white"/>
<path d="M27.3814 49.0633V43.6742H28.5916L29.2105 42.5098H24.906L24.2871 43.6593V43.6742H26.1162V49.0633H27.3814Z" fill="white"/>
<path d="M30.9713 42.5098L29.7061 43.1815V49.0633H30.9713V42.5098Z" fill="white"/>
<path d="M34.7247 49.3178C35.1372 49.348 35.5507 49.277 35.9344 49.1099C36.3182 48.9427 36.6622 48.6839 36.9411 48.3525C37.2199 48.0211 37.4263 47.6258 37.545 47.1959C37.6637 46.766 37.6915 46.3125 37.6265 45.8693C37.6915 45.4261 37.6637 44.9727 37.545 44.5428C37.4263 44.1128 37.2199 43.7175 36.9411 43.3861C36.6622 43.0548 36.3182 42.7959 35.9344 42.6288C35.5507 42.4617 35.1372 42.3906 34.7247 42.4209H34.5322L32.4418 43.5256C31.9938 44.2072 31.7709 45.033 31.8092 45.8693C31.7568 46.3115 31.7939 46.7608 31.9181 47.1857C32.0423 47.6106 32.2506 48.001 32.5283 48.3295C32.806 48.6579 33.1464 48.9166 33.5258 49.0873C33.9052 49.258 34.3144 49.3367 34.7247 49.3178ZM34.7247 43.5703C35.3986 43.5703 36.3613 44.0331 36.3613 45.8693C36.3613 47.7055 35.3986 48.1683 34.7247 48.1683C34.0509 48.1683 33.0744 47.7055 33.0744 45.8693C33.0744 44.0331 34.0371 43.4957 34.7247 43.4957V43.5703Z" fill="white"/>
<path d="M14.9356 44.3907H14.9494L17.4111 49.0633H18.6763V42.5098L17.5073 43.1368V47.0779H17.4798L15.0869 42.5098L13.7529 43.2114V49.0633H14.9356V44.3907Z" fill="white"/>
<path d="M42.2193 47.0779H42.2055L39.7988 42.5098L38.4648 43.2114V49.0633H39.6476V44.3907H39.6613L42.1367 49.0633H43.402V42.5098L42.2193 43.1368V47.0779Z" fill="white"/>
<path d="M54.6656 47.884H51.6538V42.5098L50.4023 43.1815V49.0633H54.033L54.6656 47.884Z" fill="white"/>
<path d="M104.629 42.5098L102.868 43.4353L101.012 49.0633H102.387L102.813 47.7198H105.041L105.426 49.0633H106.802L104.67 42.5098H104.629ZM103.143 46.5852L103.913 43.9877L104.656 46.5852H103.143Z" fill="white"/>
<path d="M127.898 42.5098L126.124 43.4353L124.281 49.0633H125.656L126.083 47.7198H128.324L128.71 49.0633H130.085L127.898 42.5098ZM126.372 46.5852L127.142 43.9877L127.898 46.5852H126.372Z" fill="white"/>
<path d="M116.566 42.5098L114.806 43.4353L112.949 49.0633H114.324L114.751 47.7198H116.896L117.281 49.0633H118.656L116.525 42.5098H116.566ZM115.04 46.5852L115.823 43.9877L116.566 46.5852H115.04Z" fill="white"/>
<path d="M99.7881 46.81C99.7324 47.1605 99.5633 47.4779 99.3112 47.7051C99.059 47.9322 98.7405 48.0542 98.4128 48.0491C97.3402 48.0491 96.9138 46.9891 96.9138 45.8098C96.9138 43.9437 97.8077 43.5108 98.4128 43.5108C98.7325 43.4719 99.0536 43.568 99.3097 43.7793C99.5658 43.9905 99.7371 44.3007 99.7881 44.6454H101.053C100.987 43.9623 100.676 43.3349 100.187 42.899C99.698 42.4632 99.0705 42.2539 98.4404 42.3166L96.2675 43.4213C95.8251 44.1114 95.6029 44.9398 95.6349 45.7799C95.6349 48.0491 96.7901 49.2284 98.3853 49.2284C99.0267 49.2672 99.6573 49.0383 100.148 48.5887C100.639 48.1391 100.953 47.5027 101.026 46.81H99.7881Z" fill="white"/>
<path d="M111.134 47.0779H111.12L108.728 42.5098L107.394 43.2114V49.0633H108.563V44.3907H108.59L111.052 49.0633H112.317V42.5098L111.134 43.1218V47.0779Z" fill="white"/>
<path d="M121.999 42.5098H120.624L119.358 43.1815V49.0633H121.971C123.979 49.0633 124.488 47.0331 124.488 45.6298C124.488 44.2265 124.048 42.5098 121.999 42.5098ZM121.793 47.9288H120.569V43.6443H121.779C122.315 43.6443 123.154 43.7936 123.154 45.7343C123.168 46.8091 122.824 47.9288 121.793 47.9288Z" fill="white"/>
<path d="M92.8566 43.6593L93.4755 42.5098H90.4775L89.1572 43.1965V49.0633H90.4224V46.3016H92.4716L93.0904 45.1521H90.4224V43.6593H92.8566Z" fill="white"/>
<path d="M85.4165 42.3607H85.2652L83.1611 43.4654C82.7082 44.1451 82.4804 44.9711 82.5147 45.8092C82.4752 46.2506 82.5212 46.6962 82.6497 47.1172C82.7782 47.5382 82.9864 47.9253 83.261 48.2538C83.5356 48.5822 83.8704 48.8447 84.244 49.0243C84.6176 49.2039 85.0217 49.2967 85.4303 49.2967C85.8388 49.2967 86.2429 49.2039 86.6165 49.0243C86.9901 48.8447 87.3249 48.5822 87.5995 48.2538C87.8741 47.9253 88.0823 47.5382 88.2108 47.1172C88.3393 46.6962 88.3853 46.2506 88.3458 45.8092C88.3985 45.3657 88.361 44.9151 88.236 44.489C88.111 44.063 87.9015 43.6718 87.6223 43.3431C87.3431 43.0144 87.0009 42.756 86.6198 42.5863C86.2387 42.4166 85.828 42.3396 85.4165 42.3607ZM85.4165 48.1081C84.7289 48.1081 83.7662 47.6454 83.7662 45.8092C83.7662 43.973 84.7289 43.5251 85.4165 43.5251C86.1041 43.5251 87.0668 43.973 87.0668 45.8092C87.0668 47.6454 86.1041 48.1081 85.4165 48.1081Z" fill="white"/>
<path d="M147.028 42.3613H146.835L144.745 43.466C144.297 44.1476 144.074 44.9735 144.112 45.8098C144.085 46.2426 144.14 46.677 144.274 47.0859C144.407 47.4948 144.617 47.8695 144.89 48.1867C145.163 48.5039 145.493 48.7568 145.859 48.9297C146.226 49.1026 146.621 49.1918 147.021 49.1918C147.421 49.1918 147.816 49.1026 148.183 48.9297C148.549 48.7568 148.879 48.5039 149.152 48.1867C149.425 47.8695 149.635 47.4948 149.768 47.0859C149.902 46.677 149.957 46.2426 149.93 45.8098C149.995 45.3665 149.967 44.9131 149.848 44.4832C149.729 44.0533 149.523 43.6579 149.244 43.3266C148.965 42.9952 148.621 42.7363 148.238 42.5692C147.854 42.4021 147.44 42.331 147.028 42.3613ZM147.028 48.1087C146.34 48.1087 145.378 47.6459 145.378 45.8098C145.378 43.9736 146.34 43.5257 147.028 43.5257C147.715 43.5257 148.664 43.9736 148.664 45.8098C148.664 47.6459 147.702 48.1087 147.028 48.1087Z" fill="white"/>
<path d="M135.077 46.6154H136.452V47.4514C136.264 47.6131 136.056 47.7439 135.833 47.8395C135.597 47.9426 135.345 47.9982 135.091 48.0037C134.863 48.0125 134.637 47.9646 134.43 47.8637C134.222 47.7628 134.039 47.6115 133.894 47.4215C133.559 46.9152 133.398 46.2969 133.44 45.6749C133.4 45.0901 133.562 44.51 133.894 44.0477C134.043 43.8649 134.228 43.7204 134.435 43.6249C134.642 43.5293 134.866 43.4851 135.091 43.4953C135.394 43.4809 135.692 43.5871 135.929 43.7939C136.161 43.9759 136.326 44.2399 136.397 44.5403H137.525C137.508 44.22 137.429 43.9071 137.294 43.6218C137.159 43.3364 136.971 43.0848 136.741 42.8833C136.245 42.5265 135.657 42.3537 135.063 42.3906H134.774L132.876 43.4506C132.78 43.5998 132.698 43.7491 132.615 43.8984C132.36 44.4598 132.233 45.0791 132.244 45.7047C132.237 46.3059 132.35 46.9016 132.574 47.4514C132.789 47.9668 133.144 48.399 133.592 48.6904C134.07 48.9799 134.612 49.1243 135.159 49.1084C135.63 49.0991 136.096 48.998 136.535 48.8099C136.926 48.6453 137.285 48.4022 137.593 48.0933V45.5107H135.077V46.6154Z" fill="white"/>
<path d="M142.462 46.7047C142.282 46.4919 142.074 46.3106 141.843 46.1673C142.28 46.1236 142.687 45.9055 142.985 45.5552C143.248 45.2188 143.385 44.7872 143.37 44.346C143.374 43.98 143.289 43.6193 143.122 43.301C142.965 43.0225 142.728 42.8075 142.448 42.689C142.005 42.53 141.539 42.4642 141.073 42.4949H139.876L138.625 43.2115V49.0634H139.794V46.3315H140.014C140.21 46.2991 140.409 46.2991 140.605 46.3315C140.743 46.3962 140.869 46.4872 140.977 46.6002C141.073 46.7495 141.279 47.063 141.582 47.5855L142.421 49.0037H143.796L143.081 47.7348C142.898 47.3752 142.691 47.0309 142.462 46.7047ZM140.66 45.2119H139.808V43.6145H141.568C141.737 43.6427 141.892 43.7322 142.008 43.8683C142.126 44.0231 142.185 44.2205 142.173 44.4207C142.178 44.5899 142.135 44.7568 142.049 44.8984C141.973 45.0319 141.856 45.1322 141.719 45.182C141.372 45.2689 141.016 45.304 140.66 45.2865V45.2119Z" fill="white"/>
<path d="M154.247 46.0777C154.269 46.4405 154.269 46.8046 154.247 47.1674C154.21 47.3849 154.103 47.5808 153.945 47.7198C153.734 47.8983 153.469 47.9837 153.202 47.9586C152.933 47.9684 152.668 47.8847 152.446 47.7198C152.263 47.5587 152.14 47.3303 152.102 47.0779C152.079 46.72 152.079 46.3609 152.102 46.003V42.5098L150.947 43.1517V45.9433C150.929 46.4934 150.966 47.0439 151.057 47.5854C151.11 47.8504 151.223 48.0967 151.387 48.302C151.564 48.5396 151.79 48.7288 152.047 48.8543C152.443 49.0121 152.863 49.0831 153.285 49.0633C153.66 49.0808 154.034 49.0148 154.385 48.8693C154.642 48.7515 154.873 48.573 155.059 48.3468C155.222 48.1059 155.339 47.8317 155.403 47.5406C155.477 46.9973 155.505 46.4475 155.485 45.8985V42.5098L154.344 43.1666L154.247 46.0777Z" fill="white"/>
<path d="M160.656 43.2564C160.459 42.9345 160.161 42.7011 159.817 42.5996C159.362 42.5198 158.902 42.4898 158.442 42.51H157.823L156.558 43.2116V49.0636H157.727V46.6004H158.497C158.902 46.6061 159.307 46.5712 159.707 46.4959C159.924 46.4321 160.13 46.3259 160.312 46.1824C160.521 46.0139 160.691 45.7939 160.807 45.5405C160.937 45.2214 160.999 44.8741 160.986 44.5253C161.016 44.0735 160.899 43.6246 160.656 43.2564ZM159.666 45.0628C159.565 45.2025 159.432 45.3106 159.281 45.3763C158.985 45.4616 158.679 45.4969 158.373 45.4808H157.727V43.6147H158.29C158.574 43.5918 158.859 43.5918 159.143 43.6147C159.322 43.6542 159.486 43.7534 159.611 43.8983C159.735 44.0675 159.798 44.2795 159.789 44.4955C159.799 44.6935 159.756 44.8902 159.666 45.0628Z" fill="white"/>
</svg>
