<svg width="24" height="24" viewBox="0 0 24 24" fill="none" xmlns="http://www.w3.org/2000/svg">
<rect x="6.19995" y="6.19995" width="3.8" height="3.8" stroke="#055B83" stroke-width="1.5" stroke-linecap="round" stroke-linejoin="round"/>
<rect x="6.1001" y="14.2" width="3.9" height="3.9" stroke="#055B83" stroke-width="1.5" stroke-linecap="round" stroke-linejoin="round"/>
<path d="M14 16V14" stroke="#055B83" stroke-width="1.5" stroke-linecap="round" stroke-linejoin="round"/>
<path d="M17.8 17.8H15.8" stroke="#055B83" stroke-width="1.5" stroke-linecap="round" stroke-linejoin="round"/>
<rect x="17.9172" y="9.94287" width="3.9" height="3.9" transform="rotate(-180 17.9172 9.94287)" stroke="#055B83" stroke-width="1.5" stroke-linecap="round" stroke-linejoin="round"/>
<path d="M21.5 8V4.5C21.5 3.4 20.6 2.5 19.5 2.5H16" stroke="#055B83" stroke-width="1.5" stroke-linecap="round" stroke-linejoin="round"/>
<path d="M16.3 14H17.8" stroke="#055B83" stroke-width="1.5" stroke-linecap="round" stroke-linejoin="round"/>
<path d="M8 2.5H4.5C3.4 2.5 2.5 3.4 2.5 4.5V8" stroke="#055B83" stroke-width="1.5" stroke-linecap="round" stroke-linejoin="round"/>
<path d="M2.5 16.1001V19.6001C2.5 20.7001 3.4 21.6001 4.5 21.6001H8" stroke="#055B83" stroke-width="1.5" stroke-linecap="round" stroke-linejoin="round"/>
<path d="M16 21.5H19.5C20.6 21.5 21.5 20.6 21.5 19.5V16" stroke="#055B83" stroke-width="1.5" stroke-linecap="round" stroke-linejoin="round"/>
</svg>
