<svg width="24" height="24" viewBox="0 0 24 24" fill="none" xmlns="http://www.w3.org/2000/svg">
<g clip-path="url(#clip0_1984_207285)">
<path d="M15.75 12H8.25C7.8523 12.0004 7.471 12.1586 7.18978 12.4398C6.90856 12.721 6.7504 13.1023 6.75 13.5V18C6.7504 18.3977 6.90856 18.779 7.18978 19.0602C7.471 19.3414 7.8523 19.4996 8.25 19.5H11.25V21H9V22.5H15V21H12.75V19.5H15.75C16.1477 19.4996 16.529 19.3414 16.8102 19.0602C17.0914 18.779 17.2496 18.3977 17.25 18V13.5C17.2496 13.1023 17.0914 12.721 16.8102 12.4398C16.529 12.1586 16.1477 12.0004 15.75 12ZM8.25 18V13.5H15.75L15.7515 18H8.25Z" fill="#055B83"/>
<path d="M19.3665 7.59317C19.0388 5.87954 18.1239 4.33378 16.7793 3.22199C15.4348 2.1102 13.7447 1.50195 12 1.50195C10.2553 1.50195 8.56522 2.1102 7.22066 3.22199C5.8761 4.33378 4.96121 5.87954 4.63349 7.59317C3.28198 7.83372 2.0653 8.56078 1.21318 9.63705C0.361062 10.7133 -0.067522 12.0643 0.00834894 13.435C0.0842199 14.8057 0.659295 16.1011 1.62499 17.0768C2.59069 18.0524 3.88018 18.6407 5.24999 18.7307V17.2307C4.21844 17.1361 3.26032 16.6566 2.56638 15.8875C1.87244 15.1184 1.49357 14.1162 1.50521 13.0803C1.51684 12.0445 1.91811 11.0511 2.62915 10.2978C3.34018 9.54446 4.30883 9.08654 5.34224 9.01517L5.96999 8.97317L6.03749 8.34767C6.1991 6.87925 6.89688 5.52211 7.99713 4.5363C9.09738 3.5505 10.5227 3.00537 12 3.00537C13.4773 3.00537 14.9026 3.5505 16.0029 4.5363C17.1031 5.52211 17.8009 6.87925 17.9625 8.34767L18.03 8.97317L18.6577 9.01517C19.6921 9.08541 20.6619 9.54289 21.3739 10.2964C22.086 11.0499 22.4878 12.044 22.4995 13.0807C22.5111 14.1173 22.1317 15.1202 21.4367 15.8895C20.7418 16.6588 19.7825 17.138 18.75 17.2314V18.7314C20.1204 18.6422 21.4107 18.0542 22.377 17.0784C23.3433 16.1026 23.9188 14.8067 23.9947 13.4355C24.0706 12.0643 23.6417 10.7128 22.7889 9.63636C21.9362 8.55991 20.7187 7.83306 19.3665 7.59317Z" fill="#055B83"/>
</g>
<defs>
<clipPath id="clip0_1984_207285">
<rect width="24" height="24" fill="white"/>
</clipPath>
</defs>
</svg>
