<svg width="16" height="17" viewBox="0 0 16 17" fill="none" xmlns="http://www.w3.org/2000/svg">
<path d="M5.99935 12.7686L6.66602 12.7686" stroke="#88ADD2" stroke-linecap="round"/>
<path d="M5.99935 10.7686L6.66602 10.7686" stroke="#88ADD2" stroke-linecap="round"/>
<path d="M8.66732 12.7686L9.33398 12.7686" stroke="#88ADD2" stroke-linecap="round"/>
<path d="M8.66732 10.7686L9.33398 10.7686" stroke="#88ADD2" stroke-linecap="round"/>
<path d="M2.66602 5.43506C2.66602 4.33049 3.56145 3.43506 4.66602 3.43506H10.666C11.7706 3.43506 12.666 4.33049 12.666 5.43506V9.36451C12.666 9.63107 12.6127 9.89495 12.5093 10.1406L12.1561 10.9795C12.0526 11.2252 11.9993 11.489 11.9993 11.7556V12.9351V14.1017C11.9993 15.2063 11.1039 16.1017 9.99935 16.1017H5.33268C4.22811 16.1017 3.33268 15.2063 3.33268 14.1017V12.9351V11.7556C3.33268 11.489 3.2794 11.2252 3.17595 10.9795L2.82274 10.1406C2.7193 9.89495 2.66602 9.63107 2.66602 9.36451V5.43506Z" stroke="#88ADD2" stroke-linejoin="round"/>
<path d="M5 3.43522V2.76855C5 2.21627 5.44772 1.76855 6 1.76855H9.66667C10.219 1.76855 10.6667 2.21627 10.6667 2.76855V3.43522" stroke="#88ADD2" stroke-linecap="round" stroke-linejoin="round"/>
<rect x="4.66602" y="5.43506" width="6" height="2.66667" stroke="#88ADD2" stroke-linejoin="round"/>
</svg>
